<svg width="100" height="100" viewBox="0 0 100 100" fill="none" xmlns="http://www.w3.org/2000/svg">
<g opacity="0.4">
<path d="M50.001 13.0017V19.0015M53.0013 16.0016H47.0008M36.5254 14.2233C36.5896 13.8792 36.7722 13.5685 37.0415 13.3448C37.3109 13.1212 37.6499 12.9988 38 12.9988C38.3501 12.9988 38.6891 13.1212 38.9584 13.3448C39.2277 13.5685 39.4103 13.8792 39.4746 14.2233L41.0512 22.56C41.1632 23.1527 41.4513 23.6979 41.8778 24.1244C42.3044 24.5509 42.8496 24.8389 43.4424 24.9509L51.7801 26.5273C52.1242 26.5916 52.435 26.7742 52.6587 27.0435C52.8823 27.3127 53.0048 27.6517 53.0048 28.0018C53.0048 28.3518 52.8823 28.6908 52.6587 28.9601C52.435 29.2294 52.1242 29.412 51.7801 29.4762L43.4424 31.0527C42.8496 31.1646 42.3044 31.4527 41.8778 31.8792C41.4513 32.3057 41.1632 32.8509 41.0512 33.4436L39.4746 41.7802C39.4103 42.1243 39.2277 42.4351 38.9584 42.6587C38.6891 42.8824 38.3501 43.0048 38 43.0048C37.6499 43.0048 37.3109 42.8824 37.0415 42.6587C36.7722 42.4351 36.5896 42.1243 36.5254 41.7802L34.9487 33.4436C34.8368 32.8509 34.5487 32.3057 34.1221 31.8792C33.6956 31.4527 33.1503 31.1646 32.5575 31.0527L24.2199 29.4762C23.8757 29.412 23.5649 29.2294 23.3413 28.9601C23.1176 28.6908 22.9952 28.3518 22.9952 28.0018C22.9952 27.6517 23.1176 27.3127 23.3413 27.0435C23.5649 26.7742 23.8757 26.5916 24.2199 26.5273L32.5575 24.9509C33.1503 24.8389 33.6956 24.5509 34.1221 24.1244C34.5487 23.6979 34.8368 23.1527 34.9487 22.56L36.5254 14.2233ZM28.9993 40.0006C28.9993 41.6574 27.6561 43.0005 25.9991 43.0005C24.3421 43.0005 22.9988 41.6574 22.9988 40.0006C22.9988 38.3439 24.3421 37.0008 25.9991 37.0008C27.6561 37.0008 28.9993 38.3439 28.9993 40.0006Z" stroke="#9B76FA" stroke-width="2" stroke-linecap="round"/>
</g>
<g opacity="0.6">
<path d="M80.0007 47.0012V51.001M82.0009 49.0011H78.0006M71.0169 47.8156C71.0598 47.5862 71.1815 47.379 71.3611 47.2299C71.5406 47.0808 71.7666 46.9992 72 46.9992C72.2334 46.9992 72.4594 47.0808 72.639 47.2299C72.8185 47.379 72.9403 47.5862 72.9831 47.8156L74.0342 53.3734C74.1088 53.7685 74.3009 54.1319 74.5853 54.4163C74.8696 54.7006 75.2331 54.8926 75.6283 54.9673L81.1868 56.0182C81.4162 56.0611 81.6234 56.1828 81.7725 56.3623C81.9216 56.5418 82.0032 56.7679 82.0032 57.0012C82.0032 57.2346 81.9216 57.4606 81.7725 57.6401C81.6234 57.8196 81.4162 57.9413 81.1868 57.9842L75.6283 59.0351C75.2331 59.1098 74.8696 59.3018 74.5853 59.5861C74.3009 59.8705 74.1088 60.2339 74.0342 60.6291L72.9831 66.1868C72.9403 66.4162 72.8185 66.6234 72.639 66.7725C72.4594 66.9216 72.2334 67.0032 72 67.0032C71.7666 67.0032 71.5406 66.9216 71.3611 66.7725C71.1815 66.6234 71.0598 66.4162 71.0169 66.1868L69.9659 60.6291C69.8912 60.2339 69.6992 59.8705 69.4148 59.5861C69.1304 59.3018 68.7669 59.1098 68.3717 59.0351L62.8133 57.9842C62.5839 57.9413 62.3767 57.8196 62.2276 57.6401C62.0784 57.4606 61.9968 57.2346 61.9968 57.0012C61.9968 56.7679 62.0784 56.5418 62.2276 56.3623C62.3767 56.1828 62.5839 56.0611 62.8133 56.0182L68.3717 54.9673C68.7669 54.8926 69.1304 54.7006 69.4148 54.4163C69.6992 54.1319 69.8912 53.7685 69.9659 53.3734L71.0169 47.8156ZM65.9996 65.0005C65.9996 66.105 65.1041 67.0004 63.9994 67.0004C62.8948 67.0004 61.9993 66.105 61.9993 65.0005C61.9993 63.8959 62.8948 63.0005 63.9994 63.0005C65.1041 63.0005 65.9996 63.8959 65.9996 65.0005Z" stroke="#00E1D9" stroke-width="2" stroke-linecap="round"/>
</g>
<circle cx="18" cy="78" r="3" fill="#00E1D9"/>
</svg>
